<svg xmlns="http://www.w3.org/2000/svg" viewBox="0 0 284.17 281.94">
  <circle cx="137.03" cy="144.91" r="137.03" fill="#fff"/>
  <circle cx="147.14" cy="137.03" r="137.03" fill="#ffc809"/>
  <path fill="#fff" d="M190.11,67.13c-4.41,.76-8.59,2.2-12.43,4.21-1.91,1-3.73,2.14-5.45,3.41-8.7,6.42-14.85,16.1-16.64,27.24-.59-3.64-1.64-7.13-3.09-10.39-5.15-11.58-15.35-20.41-27.81-23.69-1.19-.31-2.39-.57-3.61-.78,3.15-.54,6.18-1.43,9.06-2.63,8.21-3.42,15.11-9.36,19.73-16.85,2.85-4.61,4.83-9.82,5.72-15.38,2.86,17.77,16.8,31.83,34.52,34.86Z"/>
  <path fill="#fff" d="M213.26,99.76c-3.67,.63-6.95,2.37-9.49,4.86-.11,.11-.22,.22-.33,.33-2.49,2.57-4.2,5.88-4.8,9.56-.36-2.23-1.13-4.32-2.23-6.19-2.51-4.26-6.73-7.39-11.71-8.44-.22-.05-.45-.09-.67-.13,.34-.06,.67-.12,1-.2,2.61-.6,5-1.77,7.03-3.38,3.44-2.71,5.86-6.66,6.58-11.18,1.21,7.52,7.11,13.48,14.61,14.76Z"/>
  <path fill="#fff" d="M125.59,88.59h-20.59l-1.7,4.99-37.54,110.48c-.47,1.37-.68,2.74-.68,4.09,0,4.45,2.38,8.54,6.09,10.8,1.89,1.15,4.12,1.83,6.56,1.83l12.08-36.59,1.65-4.99h46.87l8.25,24.31c1.76,5.16,5.05,9.48,9.28,12.51,1.07,.77,2.2,1.45,3.38,2.05,3.47,1.75,7.37,2.71,11.44,2.71L125.59,88.59Zm-30.59,77.27l12.94-38.24c.6-1.9,1.18-3.8,1.74-5.7,1.81-6.13,3.43-12.24,4.92-18.23h.39c1.96,7.65,3.92,15.49,6.86,24.12l12.94,38.05h-39.81Z"/>
</svg>