<svg width="13" height="16" viewBox="0 0 13 16" fill="none" xmlns="http://www.w3.org/2000/svg">
<path d="M2.275 4.33333V6.66667H1.3C0.955218 6.66667 0.624558 6.80714 0.380761 7.05719C0.136964 7.30724 0 7.64638 0 8L0 14.6667C0 15.0203 0.136964 15.3594 0.380761 15.6095C0.624558 15.8595 0.955218 16 1.3 16H11.7C12.0448 16 12.3754 15.8595 12.6192 15.6095C12.863 15.3594 13 15.0203 13 14.6667V8C13 7.64638 12.863 7.30724 12.6192 7.05719C12.3754 6.80714 12.0448 6.66667 11.7 6.66667H10.725V4.33333C10.725 3.18406 10.2799 2.08186 9.48753 1.2692C8.69518 0.456546 7.62054 0 6.5 0C5.37946 0 4.30481 0.456546 3.51247 1.2692C2.72013 2.08186 2.275 3.18406 2.275 4.33333ZM3.9 6.66667V4.33333C3.9 3.62609 4.17393 2.94781 4.66152 2.44772C5.14912 1.94762 5.81044 1.66667 6.5 1.66667C7.18956 1.66667 7.85088 1.94762 8.33848 2.44772C8.82607 2.94781 9.1 3.62609 9.1 4.33333V6.66667H3.9ZM5.2 10.3333C5.20005 10.1023 5.2586 9.87534 5.36993 9.67454C5.48125 9.47375 5.64152 9.30606 5.83504 9.18791C6.02856 9.06976 6.24869 9.0052 6.47386 9.00056C6.69903 8.99591 6.92151 9.05134 7.1195 9.16142C7.3175 9.27149 7.48422 9.43243 7.60332 9.62847C7.72243 9.82451 7.78983 10.0489 7.79894 10.2797C7.80804 10.5105 7.75853 10.7398 7.65525 10.9451C7.55198 11.1503 7.39848 11.3245 7.2098 11.4507L7.2046 11.454C7.2046 11.454 7.33135 12.2407 7.47435 13.1673V13.168C7.47435 13.3004 7.42306 13.4274 7.33175 13.5211C7.24045 13.6147 7.11662 13.6673 6.9875 13.6673H6.0112C5.88208 13.6673 5.75825 13.6147 5.66694 13.5211C5.57564 13.4274 5.52435 13.3004 5.52435 13.168V13.1673L5.7941 11.454C5.61159 11.3331 5.46149 11.1673 5.35749 10.9717C5.25349 10.776 5.1989 10.5568 5.1987 10.334L5.2 10.3333Z" fill="black"/>
</svg>
