<svg width="153" height="137" viewBox="0 0 153 137" fill="none" xmlns="http://www.w3.org/2000/svg">
<path d="M27.8813 2V16.612H2V30.918C2 54.8634 9.10018 68.2131 26.1635 76.5137C32.5071 79.9313 38.3621 84.1901 43.5704 89.1749C47.7582 93.6474 52.8632 97.1578 58.5342 99.4645L64.9854 101.454V118.781H55.1368C43.2268 118.781 39.2187 121.497 39.2187 129.568V135H113.656V130.142C113.656 122.224 108.77 118.667 97.4707 118.667H87.8893V101.454L94.455 99.5027C100.135 97.1957 105.243 93.6706 109.419 89.1749C114.854 83.9871 120.936 79.5257 127.513 75.9016C132.621 73.4385 137.182 69.9716 140.927 65.7069C144.671 61.4423 147.522 56.4669 149.31 51.0765C150.524 44.4022 151.087 37.6252 150.989 30.8415V16.6503H124.993V2H27.8813ZM76.4374 26.3661L84.2628 42.5847H103.12L88.3473 56.2404L92.5845 73.6831L76.4374 65L60.2902 73.7978L64.5274 56.3552L49.7163 42.6995H68.6119L76.4374 26.3661ZM15.5896 31.224H27.6523V61.3661C26.3925 62.1311 22.4607 57.541 19.5978 52.3005C17.9718 48.2887 16.9305 44.0632 16.5057 39.7541L15.5896 31.224ZM125.222 31.224H138.354L137.247 39.6393C136.987 46.6446 134.176 53.312 129.345 58.3825C128.207 59.933 126.765 61.2346 125.108 62.2076L125.222 31.224Z" fill="url(#paint0_linear_369_2360)" stroke="black" stroke-width="4" stroke-linecap="round" stroke-linejoin="round"/>
<defs>
<linearGradient id="paint0_linear_369_2360" x1="151" y1="68.5" x2="2" y2="68.5" gradientUnits="userSpaceOnUse">
<stop stop-color="#D59D86"/>
<stop offset="0.25" stop-color="#72381F"/>
<stop offset="0.5" stop-color="#D39F89"/>
<stop offset="0.75" stop-color="#6F331B"/>
<stop offset="1" stop-color="#D2A38E"/>
</linearGradient>
</defs>
</svg>
