<svg width="30" height="36" viewBox="0 0 30 36" fill="none" xmlns="http://www.w3.org/2000/svg">
<path d="M12.9794 24.0776C12.8124 23.7678 12.717 23.4239 12.7 23.0718L12.7 22.9584C12.7001 22.5531 12.8043 22.155 13.0019 21.8033C13.1995 21.4517 13.4836 21.1587 13.8258 20.9526C14.1679 20.7465 14.5566 20.6342 14.9539 20.6261C15.3511 20.618 15.7439 20.7144 16.0939 20.9064C16.4438 21.0984 16.7393 21.3794 16.9506 21.7227C17.162 22.066 17.2819 22.4594 17.2981 22.8644C17.3143 23.2694 17.2262 23.6715 17.0428 24.0311C16.8601 24.3893 16.5893 24.6929 16.2573 24.9127L16.2504 24.9171L15.9708 25.0939L16.0241 25.4203L16.5176 25.3397L16.0241 25.4204L16.0241 25.4204L16.0242 25.4206L16.0243 25.4215L16.0249 25.4251L16.0273 25.4395L16.0364 25.4958L16.0715 25.7118C16.1019 25.899 16.1456 26.1693 16.1989 26.5011C16.304 27.1548 16.4464 28.047 16.5977 29.0138C16.59 29.1528 16.5321 29.2835 16.4358 29.3808C16.3325 29.4854 16.1936 29.5431 16.05 29.5431H13.9472C13.8036 29.5431 13.6647 29.4854 13.5614 29.3808C13.4653 29.2836 13.4074 29.1532 13.3995 29.0145L13.9734 25.4185L14.0244 25.0985L13.7531 24.9212C13.4302 24.7102 13.1641 24.4204 12.9794 24.0776ZM5.4 10.2083V14.6667H3.8C2.92286 14.6667 2.08286 15.0193 1.46446 15.6451C0.846258 16.2706 0.5 17.1178 0.5 18V32.1667C0.5 33.0488 0.846257 33.896 1.46446 34.5216C2.08286 35.1474 2.92286 35.5 3.8 35.5H26.2C27.0771 35.5 27.9171 35.1474 28.5355 34.5216C29.1537 33.896 29.5 33.0488 29.5 32.1667V18C29.5 17.1178 29.1537 16.2706 28.5355 15.6451C27.9171 15.0193 27.0771 14.6667 26.2 14.6667H24.6V10.2083C24.6 7.63542 23.59 5.16671 21.7903 3.3456C19.9904 1.52429 17.548 0.5 15 0.5C12.452 0.5 10.0096 1.52429 8.20969 3.3456C6.41001 5.16671 5.4 7.63542 5.4 10.2083ZM9.9 14.6667V10.2083C9.9 8.83615 10.4387 7.52135 11.3958 6.55285C12.3527 5.58455 13.6493 5.04167 15 5.04167C16.3507 5.04167 17.6473 5.58455 18.6042 6.55285C19.5613 7.52135 20.1 8.83615 20.1 10.2083V14.6667H9.9Z" fill="#FFC85F" stroke="black"/>
</svg>
