<?xml version="1.0" encoding="UTF-8"?>
<svg id="Layer_2" data-name="Layer 2" xmlns="http://www.w3.org/2000/svg" viewBox="0 0 117.21 112.51">
  <g id="Layer_1-2" data-name="Layer 1">
    <path d="M15.82,19.35v50.31c15.7,3.64,30.31,10.83,42.78,21.06,6.13-5.02,12.78-9.32,19.81-12.82,7.28-3.62,14.99-6.39,22.97-8.25v-16.8c-10.96,2.63-14.72,5-22.97,10.63v-16.17c7.08-5.22,14.77-9.12,22.97-10.41,4.74-.75,9.72-1.31,15.05-1.83h.77v48.03c-5.43.49-10.71,1.46-15.82,2.87-8.19,2.26-15.91,5.67-22.97,10.02-7.36,4.54-14.02,10.1-19.77,16.51h-.09c-11.33-12.62-26.19-22-43.02-26.6-5.02-1.37-10.21-2.32-15.54-2.8V0h.77c5.22.51,10.11,1.06,14.76,1.79,15.78,2.46,28.88,7.02,43.07,19.61,6.71-5.96,13.18-10.12,19.81-13.11C89.92,3.1,101.9,1.43,116.43,0h.77v17.34c-6.53.39-10.45.85-15.72,1.65-4.15.64-8.2,1.7-12.05,2.95-1.18.36-2.31.76-3.46,1.23,0,0,0,0,0,0-2.29.93-4.64,2.14-7.57,3.82-1.48.85-3.11,1.83-4.95,2.96-6.45,3.94-14.47,11.48-14.84,11.84h-.01s0,.01,0,.01c0,0-8.25-7.81-14.86-11.85-12.23-7.48-14.93-8.27-27.93-10.6Z"/>
  </g>
</svg>