<svg width="32" height="38" viewBox="0 0 32 38" fill="none" xmlns="http://www.w3.org/2000/svg">
<path d="M4.82654 12.0239V11.9409H4.32654H4.32381L4.27913 12.4409H3.82654V26.2453V26.6422L4.21305 26.7323C8.42341 27.7135 12.3415 29.6516 15.686 32.4096L16.0038 32.6717L16.3219 32.4099C17.9663 31.0562 19.7499 29.897 21.6351 28.9535C23.5873 27.9777 25.6551 27.2309 27.7957 26.7294L28.1817 26.6389V26.2426V21.6329V20.9979L27.5644 21.1468C26.0473 21.5128 25.0052 21.8662 24.0496 22.3333C23.333 22.6837 22.6742 23.0938 21.9116 23.6049V20.3664C23.746 19.0399 25.7024 18.0756 27.7597 17.7503L27.7602 17.7502C28.9394 17.5626 30.1769 17.4184 31.5 17.2855V29.4805C30.1472 29.6281 28.8285 29.8836 27.548 30.2387C25.2655 30.8718 23.1147 31.8269 21.1483 33.0448L21.1481 33.0449C19.2506 34.2215 17.5199 35.6429 16.0026 37.2716C12.8955 33.9382 8.89242 31.459 4.37984 30.2192L4.37965 30.2191C3.12455 29.8748 1.83111 29.6252 0.505459 29.4805V7.66254C1.80005 7.79278 3.0138 7.93423 4.16944 8.11659L4.16997 8.11668C8.40683 8.78061 11.8861 10.0007 15.6713 13.3766L16.0043 13.6735L16.3371 13.3764C18.1343 11.7718 19.8583 10.6593 21.618 9.86162C24.5906 8.51429 27.6898 8.04798 31.5 7.663V11.4201C29.9724 11.5221 28.9549 11.6462 27.6335 11.8479L27.6324 11.848C26.4678 12.0286 25.3368 12.3265 24.2688 12.6749C23.9342 12.7776 23.6128 12.892 23.2857 13.0264C22.6311 13.2936 21.9678 13.638 21.1592 14.104L21.1589 14.1042C20.749 14.3408 20.2997 14.6124 19.7957 14.9235C18.3802 15.7927 16.7141 17.2663 16.0032 17.9179C15.9895 17.9053 15.9754 17.8925 15.9609 17.8793C15.7186 17.6583 15.3767 17.3522 14.9775 17.0108C14.1842 16.3325 13.1462 15.4989 12.2097 14.9235L4.82654 12.0239ZM4.82654 12.0239C6.36059 12.3042 7.38404 12.521 8.38969 12.8969C9.48429 13.3061 10.5391 13.8964 12.2095 14.9234L4.82654 12.0239ZM7.21827 3.73719L7.21883 3.73875C7.27668 3.90012 7.32513 4.06298 7.36423 4.22631C7.2139 4.29816 7.05721 4.36335 6.89492 4.42216C4.37955 5.32328 1.60898 4.00329 0.709331 1.47018C0.652439 1.30578 0.604281 1.14204 0.564709 0.978371C0.714444 0.906891 0.870477 0.842016 1.03206 0.783456C3.54801 -0.117868 6.31928 1.20294 7.21827 3.73719Z" fill="black" stroke="black"/>
</svg>
